<svg width="209" height="285" viewBox="0 0 209 285" fill="none" xmlns="http://www.w3.org/2000/svg">
<g clip-path="url(#clip0_2304_2079)">
<path d="M162.704 35.6613C166.397 35.6613 169.391 32.6676 169.391 28.9748C169.391 25.282 166.397 22.2883 162.704 22.2883C159.011 22.2883 156.018 25.282 156.018 28.9748C156.018 32.6676 159.011 35.6613 162.704 35.6613Z" fill="#FDCB6E"/>
<path d="M184.992 13.3729C188.685 13.3729 191.679 10.3793 191.679 6.68647C191.679 2.99363 188.685 0 184.992 0C181.299 0 178.306 2.99363 178.306 6.68647C178.306 10.3793 181.299 13.3729 184.992 13.3729Z" fill="#FDCB6E"/>
<path d="M207.281 35.6613C210.974 35.6613 213.967 32.6676 213.967 28.9748C213.967 25.282 210.974 22.2883 207.281 22.2883C203.588 22.2883 200.594 25.282 200.594 28.9748C200.594 32.6676 203.588 35.6613 207.281 35.6613Z" fill="#FDCB6E"/>
<path d="M118.128 80.2377C121.821 80.2377 124.814 77.2441 124.814 73.5512C124.814 69.8584 121.821 66.8647 118.128 66.8647C114.435 66.8647 111.441 69.8584 111.441 73.5512C111.441 77.2441 114.435 80.2377 118.128 80.2377Z" fill="#FDCB6E"/>
<path d="M140.416 57.9494C144.109 57.9494 147.102 54.9557 147.102 51.2629C147.102 47.5701 144.109 44.5764 140.416 44.5764C136.723 44.5764 133.729 47.5701 133.729 51.2629C133.729 54.9557 136.723 57.9494 140.416 57.9494Z" fill="#FDCB6E"/>
<path d="M162.704 80.2377C166.397 80.2377 169.391 77.2441 169.391 73.5512C169.391 69.8584 166.397 66.8647 162.704 66.8647C159.011 66.8647 156.018 69.8584 156.018 73.5512C156.018 77.2441 159.011 80.2377 162.704 80.2377Z" fill="#FDCB6E"/>
<path d="M184.992 57.9494C188.685 57.9494 191.679 54.9557 191.679 51.2629C191.679 47.5701 188.685 44.5764 184.992 44.5764C181.299 44.5764 178.306 47.5701 178.306 51.2629C178.306 54.9557 181.299 57.9494 184.992 57.9494Z" fill="#FDCB6E"/>
<path d="M207.281 80.2377C210.974 80.2377 213.967 77.2441 213.967 73.5512C213.967 69.8584 210.974 66.8647 207.281 66.8647C203.588 66.8647 200.594 69.8584 200.594 73.5512C200.594 77.2441 203.588 80.2377 207.281 80.2377Z" fill="#FDCB6E"/>
<path d="M73.5512 124.814C77.2441 124.814 80.2377 121.82 80.2377 118.128C80.2377 114.435 77.2441 111.441 73.5512 111.441C69.8584 111.441 66.8647 114.435 66.8647 118.128C66.8647 121.82 69.8584 124.814 73.5512 124.814Z" fill="#FDCB6E"/>
<path d="M95.8393 102.526C99.5321 102.526 102.526 99.5321 102.526 95.8393C102.526 92.1465 99.5321 89.1528 95.8393 89.1528C92.1465 89.1528 89.1528 92.1465 89.1528 95.8393C89.1528 99.5321 92.1465 102.526 95.8393 102.526Z" fill="#FDCB6E"/>
<path d="M118.128 124.814C121.821 124.814 124.814 121.82 124.814 118.128C124.814 114.435 121.821 111.441 118.128 111.441C114.435 111.441 111.441 114.435 111.441 118.128C111.441 121.82 114.435 124.814 118.128 124.814Z" fill="#FDCB6E"/>
<path d="M140.416 102.526C144.109 102.526 147.102 99.5321 147.102 95.8393C147.102 92.1465 144.109 89.1528 140.416 89.1528C136.723 89.1528 133.729 92.1465 133.729 95.8393C133.729 99.5321 136.723 102.526 140.416 102.526Z" fill="#FDCB6E"/>
<path d="M162.704 124.814C166.397 124.814 169.391 121.82 169.391 118.128C169.391 114.435 166.397 111.441 162.704 111.441C159.011 111.441 156.018 114.435 156.018 118.128C156.018 121.82 159.011 124.814 162.704 124.814Z" fill="#FDCB6E"/>
<path d="M184.992 102.526C188.685 102.526 191.679 99.5321 191.679 95.8393C191.679 92.1465 188.685 89.1528 184.992 89.1528C181.299 89.1528 178.306 92.1465 178.306 95.8393C178.306 99.5321 181.299 102.526 184.992 102.526Z" fill="#FDCB6E"/>
<path d="M207.281 124.814C210.974 124.814 213.967 121.82 213.967 118.128C213.967 114.435 210.974 111.441 207.281 111.441C203.588 111.441 200.594 114.435 200.594 118.128C200.594 121.82 203.588 124.814 207.281 124.814Z" fill="#FDCB6E"/>
<path d="M95.8393 147.102C99.5321 147.102 102.526 144.109 102.526 140.416C102.526 136.723 99.5321 133.729 95.8393 133.729C92.1465 133.729 89.1528 136.723 89.1528 140.416C89.1528 144.109 92.1465 147.102 95.8393 147.102Z" fill="#FDCB6E"/>
<path d="M118.128 169.391C121.821 169.391 124.814 166.397 124.814 162.704C124.814 159.011 121.821 156.018 118.128 156.018C114.435 156.018 111.441 159.011 111.441 162.704C111.441 166.397 114.435 169.391 118.128 169.391Z" fill="#FDCB6E"/>
<path d="M140.416 147.102C144.109 147.102 147.102 144.109 147.102 140.416C147.102 136.723 144.109 133.729 140.416 133.729C136.723 133.729 133.729 136.723 133.729 140.416C133.729 144.109 136.723 147.102 140.416 147.102Z" fill="#FDCB6E"/>
<path d="M162.704 169.391C166.397 169.391 169.391 166.397 169.391 162.704C169.391 159.011 166.397 156.018 162.704 156.018C159.011 156.018 156.018 159.011 156.018 162.704C156.018 166.397 159.011 169.391 162.704 169.391Z" fill="#FDCB6E"/>
<path d="M184.992 147.102C188.685 147.102 191.679 144.109 191.679 140.416C191.679 136.723 188.685 133.729 184.992 133.729C181.299 133.729 178.306 136.723 178.306 140.416C178.306 144.109 181.299 147.102 184.992 147.102Z" fill="#FDCB6E"/>
<path d="M207.281 169.391C210.974 169.391 213.967 166.397 213.967 162.704C213.967 159.011 210.974 156.018 207.281 156.018C203.588 156.018 200.594 159.011 200.594 162.704C200.594 166.397 203.588 169.391 207.281 169.391Z" fill="#FDCB6E"/>
<path d="M140.416 191.679C144.109 191.679 147.102 188.685 147.102 184.992C147.102 181.3 144.109 178.306 140.416 178.306C136.723 178.306 133.729 181.3 133.729 184.992C133.729 188.685 136.723 191.679 140.416 191.679Z" fill="#FDCB6E"/>
<path d="M162.704 213.967C166.397 213.967 169.391 210.973 169.391 207.28C169.391 203.588 166.397 200.594 162.704 200.594C159.011 200.594 156.018 203.588 156.018 207.28C156.018 210.973 159.011 213.967 162.704 213.967Z" fill="#FDCB6E"/>
<path d="M184.992 191.679C188.685 191.679 191.679 188.685 191.679 184.992C191.679 181.3 188.685 178.306 184.992 178.306C181.299 178.306 178.306 181.3 178.306 184.992C178.306 188.685 181.299 191.679 184.992 191.679Z" fill="#FDCB6E"/>
<path d="M207.281 213.967C210.974 213.967 213.967 210.973 213.967 207.28C213.967 203.588 210.974 200.594 207.281 200.594C203.588 200.594 200.594 203.588 200.594 207.28C200.594 210.973 203.588 213.967 207.281 213.967Z" fill="#FDCB6E"/>
<path d="M184.992 236.255C188.685 236.255 191.679 233.262 191.679 229.569C191.679 225.876 188.685 222.882 184.992 222.882C181.299 222.882 178.306 225.876 178.306 229.569C178.306 233.262 181.299 236.255 184.992 236.255Z" fill="#FDCB6E"/>
<path d="M207.281 258.544C210.974 258.544 213.967 255.55 213.967 251.857C213.967 248.164 210.974 245.171 207.281 245.171C203.588 245.171 200.594 248.164 200.594 251.857C200.594 255.55 203.588 258.544 207.281 258.544Z" fill="#FDCB6E"/>
</g>
<defs>
<clipPath id="clip0_2304_2079">
<rect width="209" height="285" fill="white"/>
</clipPath>
</defs>
</svg>
